<?xml version="1.0" standalone="no"?>
<!DOCTYPE svg PUBLIC "-//W3C//DTD SVG 20010904//EN"
 "http://www.w3.org/TR/2001/REC-SVG-20010904/DTD/svg10.dtd">
<svg version="1.0" xmlns="http://www.w3.org/2000/svg"
 width="227.000000pt" height="220.000000pt" viewBox="0 0 227.000000 220.000000"
 preserveAspectRatio="xMidYMid meet">

<g transform="translate(0.000000,220.000000) scale(0.100000,-0.100000)"
fill="#000000" stroke="none">
<path d="M1140 2127 c0 -4 7 -22 16 -39 15 -30 15 -32 -2 -46 -13 -9 -14 -13
-4 -10 16 5 34 37 44 78 5 21 4 21 -8 -4 l-13 -30 -16 30 c-9 16 -16 25 -17
21z"/>
<path d="M1082 2085 c-14 -31 -16 -46 -2 -25 6 10 9 -159 10 -467 l0 -483
-496 0 c-273 1 -499 -2 -502 -5 -6 -5 17 -6 601 -5 l397 0 0 -397 c-1 -584 0
-607 5 -601 3 3 6 229 5 502 l0 496 483 0 c308 -1 477 -4 467 -10 -22 -14 1
-11 28 3 l23 13 -26 12 c-31 14 -46 16 -25 2 10 -6 -159 -9 -467 -10 l-483 0
0 483 c1 308 4 477 10 467 14 -22 11 1 -3 28 l-13 23 -12 -26z"/>
<path d="M1151 1903 c1 -26 4 -38 6 -25 2 12 10 22 17 22 8 0 21 -10 30 -22 9
-13 14 -16 9 -8 -4 8 -7 28 -8 45 0 25 -4 31 -27 33 -27 3 -28 2 -27 -45z m49
22 c0 -8 -9 -15 -20 -15 -11 0 -20 7 -20 15 0 8 9 15 20 15 11 0 20 -7 20 -15z"/>
<path d="M1151 1503 c1 -26 4 -38 6 -25 6 29 23 28 49 -5 l21 -27 16 49 c10
27 15 50 13 53 -3 2 -10 -14 -17 -37 -7 -23 -16 -41 -21 -41 -8 0 -10 7 -12
50 -1 20 -7 26 -28 28 -27 3 -28 2 -27 -45z m49 22 c0 -8 -9 -15 -20 -15 -11
0 -20 7 -20 15 0 8 9 15 20 15 11 0 20 -7 20 -15z"/>
<path d="M1276 1541 c-4 -5 2 -7 13 -4 32 8 35 -17 5 -48 l-28 -29 35 1 c25 1
28 3 11 6 l-24 5 22 23 c13 14 20 31 17 39 -7 17 -42 22 -51 7z"/>
<path d="M291 1203 c1 -26 4 -38 6 -25 2 12 10 22 17 22 8 0 21 -10 30 -22 9
-13 14 -16 9 -8 -4 8 -7 28 -8 45 0 25 -4 31 -27 33 -27 3 -28 2 -27 -45z m49
22 c0 -8 -9 -15 -20 -15 -11 0 -20 7 -20 15 0 8 9 15 20 15 11 0 20 -7 20 -15z"/>
<path d="M691 1203 c1 -26 4 -38 6 -25 6 29 23 28 49 -5 l21 -27 16 49 c10 27
15 50 13 53 -3 2 -10 -14 -17 -37 -7 -23 -16 -41 -21 -41 -8 0 -10 7 -12 50
-1 20 -7 26 -28 28 -27 3 -28 2 -27 -45z m49 22 c0 -8 -9 -15 -20 -15 -11 0
-20 7 -20 15 0 8 9 15 20 15 11 0 20 -7 20 -15z"/>
<path d="M816 1241 c-4 -5 2 -7 13 -4 32 8 35 -17 5 -48 l-28 -29 35 1 c25 1
28 3 11 6 l-24 5 22 23 c13 14 20 31 17 39 -7 17 -42 22 -51 7z"/>
<path d="M1451 1203 c1 -26 4 -38 6 -25 6 29 23 28 49 -5 l21 -27 16 49 c10
27 15 50 13 53 -3 2 -10 -14 -17 -37 -7 -23 -16 -41 -21 -41 -8 0 -10 7 -12
50 -1 20 -7 26 -28 28 -27 3 -28 2 -27 -45z m49 22 c0 -8 -9 -15 -20 -15 -11
0 -20 7 -20 15 0 8 9 15 20 15 11 0 20 -7 20 -15z"/>
<path d="M1576 1241 c-4 -5 2 -7 13 -4 32 8 35 -17 5 -48 l-28 -29 35 1 c25 1
28 3 11 6 l-24 5 22 23 c13 14 20 31 17 39 -7 17 -42 22 -51 7z"/>
<path d="M1851 1203 c1 -26 4 -38 6 -25 2 12 10 22 17 22 8 0 21 -10 30 -22 9
-13 14 -16 9 -8 -4 8 -7 28 -8 45 0 25 -4 31 -27 33 -27 3 -28 2 -27 -45z m49
22 c0 -8 -9 -15 -20 -15 -11 0 -20 7 -20 15 0 8 9 15 20 15 11 0 20 -7 20 -15z"/>
<path d="M2049 1215 c6 -13 6 -27 0 -40 -10 -20 -10 -20 5 -1 16 20 16 20 32
0 15 -19 15 -19 5 1 -6 13 -6 27 0 40 10 20 10 20 -5 1 -16 -20 -16 -20 -32 0
-15 19 -15 19 -5 -1z"/>
<path d="M258 1193 c7 -3 16 -2 19 1 4 3 -2 6 -13 5 -11 0 -14 -3 -6 -6z"/>
<path d="M658 1193 c7 -3 16 -2 19 1 4 3 -2 6 -13 5 -11 0 -14 -3 -6 -6z"/>
<path d="M1191 703 c1 -26 4 -38 6 -25 6 29 23 28 49 -5 l21 -27 16 49 c10 27
15 50 13 53 -3 2 -10 -14 -17 -37 -7 -23 -16 -41 -21 -41 -8 0 -10 7 -12 50
-1 20 -7 26 -28 28 -27 3 -28 2 -27 -45z m49 22 c0 -8 -9 -15 -20 -15 -11 0
-20 7 -20 15 0 8 9 15 20 15 11 0 20 -7 20 -15z"/>
<path d="M1316 741 c-4 -5 2 -7 13 -4 32 8 35 -17 5 -48 l-28 -29 35 1 c25 1
28 3 11 6 l-24 5 22 23 c13 14 20 31 17 39 -7 17 -42 22 -51 7z"/>
<path d="M1158 693 c7 -3 16 -2 19 1 4 3 -2 6 -13 5 -11 0 -14 -3 -6 -6z"/>
<path d="M1191 303 c1 -26 4 -38 6 -25 2 12 10 22 17 22 8 0 21 -10 30 -22 9
-13 14 -16 9 -8 -4 8 -7 28 -8 45 0 25 -4 31 -27 33 -27 3 -28 2 -27 -45z m49
22 c0 -8 -9 -15 -20 -15 -11 0 -20 7 -20 15 0 8 9 15 20 15 11 0 20 -7 20 -15z"/>
<path d="M1158 293 c7 -3 16 -2 19 1 4 3 -2 6 -13 5 -11 0 -14 -3 -6 -6z"/>
</g>
</svg>
